<?xml version="1.0" encoding="UTF-8" standalone="no"?>
<svg
   version="1.1"
   id="Layer_1"
   x="0px"
   y="0px"
   viewBox="0 0 122.88 97.05"
   style="enable-background:new 0 0 122.88 97.05"
   xml:space="preserve"
   sodipodi:docname="module_image.svg"
   inkscape:version="1.1.2 (0a00cf5339, 2022-02-04)"
   inkscape:export-filename="/home/marc/www/hhdev/protected/modules/cron-daemon/resources/module_image.png"
   inkscape:export-xdpi="347.45001"
   inkscape:export-ydpi="347.45001"
   xmlns:inkscape="http://www.inkscape.org/namespaces/inkscape"
   xmlns:sodipodi="http://sodipodi.sourceforge.net/DTD/sodipodi-0.dtd"
   xmlns:xlink="http://www.w3.org/1999/xlink"
   xmlns="http://www.w3.org/2000/svg"
   xmlns:svg="http://www.w3.org/2000/svg"><defs
     id="defs9"><linearGradient
       inkscape:collect="always"
       id="linearGradient1095"><stop
         style="stop-color:#ce2c8d;stop-opacity:1;"
         offset="0"
         id="stop1091" /><stop
         style="stop-color:#ffffff;stop-opacity:1"
         offset="1"
         id="stop1093" /></linearGradient><linearGradient
       inkscape:collect="always"
       xlink:href="#linearGradient1095"
       id="linearGradient1097"
       x1="65.836899"
       y1="43.841801"
       x2="-4.2705827"
       y2="-88.977081"
       gradientUnits="userSpaceOnUse" /></defs><sodipodi:namedview
     id="namedview7"
     pagecolor="#ffffff"
     bordercolor="#666666"
     borderopacity="1.0"
     inkscape:pageshadow="2"
     inkscape:pageopacity="0.0"
     inkscape:pagecheckerboard="0"
     showgrid="false"
     inkscape:zoom="1.3704276"
     inkscape:cx="113.83308"
     inkscape:cy="78.44267"
     inkscape:window-width="1320"
     inkscape:window-height="704"
     inkscape:window-x="46"
     inkscape:window-y="27"
     inkscape:window-maximized="1"
     inkscape:current-layer="layer1" /><g
     inkscape:groupmode="layer"
     id="layer2"
     inkscape:label="Layer 2"><path
       sodipodi:type="star"
       style="fill:url(#linearGradient1097);fill-opacity:1;stroke:#3bb0f4;stroke-width:0;stroke-miterlimit:4;stroke-dasharray:none"
       id="path859"
       inkscape:flatsided="true"
       sodipodi:sides="4"
       sodipodi:cx="63.406307"
       sodipodi:cy="46.851624"
       sodipodi:r1="86.300095"
       sodipodi:r2="61.02338"
       sodipodi:arg1="0.78539816"
       sodipodi:arg2="1.5707963"
       inkscape:rounded="0.15"
       inkscape:randomized="0"
       d="m 124.42969,107.87501 c -12.94501,12.94501 -109.10175,12.94501 -122.0467647,0 -12.9450143,-12.945018 -12.9450143,-109.1017541 -4e-7,-122.046768 12.9450141,-12.945015 109.1017451,-12.945015 122.0467651,-10e-7 12.94501,12.9450144 12.94501,109.10175 0,122.046769 z"
       inkscape:export-filename="/home/marc/www/hhdev/protected/modules/module-model/resources/module_image.png"
       inkscape:export-xdpi="347.45001"
       inkscape:export-ydpi="347.45001" /></g><g
     inkscape:groupmode="layer"
     id="layer1"
     inkscape:label="Layer 1"><path
       class="cls-1"
       d="m 65.188426,42.421042 c 1.045614,-1.045519 7.939202,-7.953344 8.659033,-8.676348 a 9.1054026,9.1054026 0 0 1 4.678599,-1.421263 11.020092,11.020092 0 0 1 -1.275917,4.405501 c -0.645031,0.907339 -7.552857,7.850615 -8.754327,9.055623 a 7.1152763,7.1152763 0 0 1 0,6.043008 l 12.160093,12.181311 a 8.8967707,8.8967707 0 0 1 2.55183,5.968566 9.0299651,9.0299651 0 0 1 -6.808538,-3.413109 C 73.861512,64.023107 66.670255,56.704188 65.185162,55.190803 a 7.1036707,7.1036707 0 1 1 0.0032,-12.769761 m 51.593788,20.783491 1.82837,-21.399322 -12.03434,-1.023036 a 43.166499,43.166499 0 0 0 -3.64169,-11.431463 l 9.2484,-7.789954 L 98.340666,5.135344 89.097172,12.930285 A 42.847249,42.847249 0 0 0 83.996771,9.8153941 41.796559,41.796559 0 0 0 78.440666,7.409356 L 79.474308,-4.6349493 58.079612,-6.4684883 57.051494,5.5809 A 43.252908,43.252908 0 0 0 45.624928,9.2175071 L 37.82509,-0.03088004 21.40956,13.811512 29.194347,23.055008 A 43.260072,43.260072 0 0 0 23.678496,33.706522 L 11.628935,32.678321 9.8059132,54.062407 21.855295,55.100679 a 42.523736,42.523736 0 0 0 3.636612,11.426476 l -9.248386,7.789776 13.832144,16.425682 9.25882,-7.789954 a 42.303679,42.303679 0 0 0 10.646253,5.510864 l -1.023304,12.054287 21.379371,1.81831 1.033106,-12.044317 a 42.505784,42.505784 0 0 0 11.426566,-3.62682 l 7.794852,9.24349 16.420441,-13.837406 -7.789962,-9.248386 A 42.500978,42.500978 0 0 0 104.73793,62.171434 Z M 64.20821,79.215129 A 31.28132,31.28132 0 1 1 95.489532,47.933809 31.28132,31.28132 0 0 1 64.20821,79.215129 Z"
       id="path2"
       style="fill:#ffffff;stroke-width:9.06703" /></g></svg>
